<svg width="32" height="32" viewBox="0 0 32 32" fill="none" xmlns="http://www.w3.org/2000/svg">
<path d="M15.8078 3.34194C22.6184 3.34194 28.1627 9.00457 28.1627 15.9606C28.1627 22.9167 22.6184 28.5793 15.8078 28.5793C8.99721 28.5793 3.45297 22.9167 3.45297 15.9606C3.45297 9.00457 8.99721 3.34194 15.8078 3.34194ZM15.8078 0.187267C7.28297 0.187267 0.364258 7.25372 0.364258 15.9606C0.364258 24.6675 7.28297 31.734 15.8078 31.734C24.3327 31.734 31.2514 24.6675 31.2514 15.9606C31.2514 7.25372 24.3327 0.187267 15.8078 0.187267ZM17.3522 15.9606V9.65127H14.2635V15.9606H9.63039L15.8078 22.2699L21.9852 15.9606H17.3522Z" fill="white" fill-opacity="0.6"/>
</svg>
