<svg width="1440" height="866" viewBox="0 0 1440 866" fill="none" xmlns="http://www.w3.org/2000/svg">
<path d="M-8.49426 367.152L71.9499 376.534C152.394 386.624 313.282 404.326 474.171 357.771C635.059 310.507 795.947 197.217 956.835 187.835C1117.72 177.745 1278.61 273.334 1359.06 319.889L1439.5 367.152V593.734H1359.06C1278.61 593.734 1117.72 593.734 956.835 593.734C795.947 593.734 635.059 593.734 474.171 593.734C313.282 593.734 152.394 593.734 71.9499 593.734H-8.49426V367.152Z" fill="#6F2A86"/>
<g clip-path="url(#clip0_2_14)">
<path d="M0 393L48 426.355C96 460.337 192 526.108 288 535.034C384 543.333 480 493.222 576 476.466C672 460.337 768 475.997 864 484.923C960 493.222 1056 493.222 1152 501.522C1248 510.448 1344 526.108 1392 535.034L1440 543.333V844H1392C1344 844 1248 844 1152 844C1056 844 960 844 864 844C768 844 672 844 576 844C480 844 384 844 288 844C192 844 96 844 48 844H0V393Z" fill="#AD72C0"/>
</g>
<g clip-path="url(#clip1_2_14)">
<path d="M0 104L60 133.933C120 163.418 240 223.957 360 259.496C480 295.707 600 306.918 720 283.375C840 259.832 960 199.293 1080 163.754C1200 127.543 1320 116.332 1380 109.942L1440 104V391H1380C1320 391 1200 391 1080 391C960 391 840 391 720 391C600 391 480 391 360 391C240 391 120 391 60 391H0V104Z" fill="#6F2A86" fill-opacity="0.8"/>
</g>
<rect width="1440" height="844" fill="black" fill-opacity="0.3"/>
<path d="M506.937 660H497.38L511.942 617.818H523.435L537.976 660H528.419L517.853 627.457H517.523L506.937 660ZM506.339 643.42H528.913V650.381H506.339V643.42ZM542.888 628.364H551.662V661.565C551.662 664.009 551.182 665.987 550.221 667.497C549.259 669.008 547.879 670.113 546.081 670.813C544.296 671.513 542.16 671.864 539.675 671.864C539.373 671.864 539.085 671.857 538.81 671.843C538.522 671.843 538.22 671.836 537.904 671.822V664.964C538.137 664.978 538.343 664.984 538.522 664.984C538.686 664.998 538.865 665.005 539.057 665.005C540.471 665.005 541.46 664.703 542.023 664.099C542.6 663.508 542.888 662.616 542.888 661.421V628.364ZM547.255 624.286C545.964 624.286 544.852 623.853 543.918 622.988C542.984 622.109 542.517 621.059 542.517 619.837C542.517 618.628 542.984 617.592 543.918 616.727C544.852 615.848 545.964 615.408 547.255 615.408C548.573 615.408 549.692 615.848 550.612 616.727C551.546 617.592 552.012 618.628 552.012 619.837C552.012 621.059 551.546 622.109 550.612 622.988C549.692 623.853 548.573 624.286 547.255 624.286ZM578.979 646.53V628.364H587.753V660H579.329V654.254H578.999C578.285 656.107 577.097 657.597 575.436 658.723C573.788 659.849 571.777 660.412 569.401 660.412C567.287 660.412 565.426 659.931 563.819 658.97C562.213 658.009 560.956 656.643 560.05 654.871C559.158 653.1 558.705 650.979 558.691 648.507V628.364H567.465V646.942C567.479 648.809 567.98 650.285 568.969 651.37C569.957 652.455 571.282 652.997 572.944 652.997C574.001 652.997 574.99 652.757 575.91 652.276C576.83 651.782 577.571 651.054 578.134 650.093C578.711 649.132 578.992 647.944 578.979 646.53ZM606.429 660.515C604.026 660.515 601.849 659.897 599.9 658.661C597.963 657.412 596.426 655.579 595.286 653.162C594.16 650.732 593.597 647.752 593.597 644.223C593.597 640.598 594.181 637.584 595.348 635.181C596.515 632.764 598.066 630.959 600.002 629.764C601.952 628.556 604.087 627.952 606.408 627.952C608.179 627.952 609.655 628.254 610.836 628.858C612.031 629.448 612.992 630.19 613.72 631.082C614.461 631.961 615.024 632.826 615.409 633.678H615.676V617.818H624.43V660H615.779V654.933H615.409C614.997 655.812 614.413 656.684 613.658 657.549C612.917 658.4 611.949 659.107 610.754 659.67C609.573 660.233 608.131 660.515 606.429 660.515ZM609.209 653.533C610.623 653.533 611.818 653.148 612.793 652.379C613.782 651.597 614.537 650.505 615.059 649.104C615.594 647.704 615.862 646.063 615.862 644.182C615.862 642.301 615.601 640.667 615.079 639.28C614.557 637.893 613.802 636.822 612.814 636.067C611.825 635.312 610.623 634.934 609.209 634.934C607.767 634.934 606.552 635.325 605.564 636.108C604.575 636.891 603.827 637.975 603.319 639.362C602.81 640.749 602.556 642.356 602.556 644.182C602.556 646.022 602.81 647.649 603.319 649.063C603.84 650.464 604.589 651.562 605.564 652.359C606.552 653.141 607.767 653.533 609.209 653.533ZM640.665 660.597C638.647 660.597 636.848 660.247 635.269 659.547C633.69 658.833 632.44 657.782 631.52 656.396C630.614 654.995 630.161 653.251 630.161 651.164C630.161 649.406 630.484 647.93 631.129 646.736C631.774 645.541 632.653 644.58 633.765 643.852C634.878 643.125 636.141 642.575 637.555 642.205C638.983 641.834 640.48 641.573 642.045 641.422C643.885 641.23 645.368 641.051 646.494 640.886C647.62 640.708 648.437 640.447 648.945 640.104C649.453 639.76 649.707 639.252 649.707 638.58V638.456C649.707 637.152 649.295 636.142 648.471 635.428C647.661 634.714 646.508 634.357 645.011 634.357C643.432 634.357 642.176 634.707 641.242 635.408C640.308 636.094 639.69 636.959 639.388 638.003L631.273 637.344C631.685 635.421 632.495 633.76 633.704 632.359C634.912 630.945 636.47 629.86 638.379 629.105C640.301 628.336 642.526 627.952 645.052 627.952C646.81 627.952 648.492 628.158 650.099 628.57C651.719 628.982 653.154 629.62 654.403 630.485C655.666 631.35 656.662 632.462 657.39 633.822C658.117 635.167 658.481 636.781 658.481 638.662V660H650.16V655.613H649.913C649.405 656.602 648.725 657.473 647.874 658.229C647.023 658.97 646 659.554 644.805 659.979C643.611 660.391 642.231 660.597 640.665 660.597ZM643.178 654.542C644.469 654.542 645.608 654.288 646.597 653.78C647.586 653.258 648.362 652.558 648.925 651.679C649.488 650.8 649.769 649.805 649.769 648.692V645.335C649.494 645.514 649.117 645.679 648.636 645.83C648.169 645.967 647.641 646.097 647.05 646.221C646.46 646.331 645.869 646.434 645.279 646.53C644.689 646.612 644.153 646.688 643.672 646.756C642.643 646.907 641.743 647.148 640.974 647.477C640.205 647.807 639.608 648.253 639.182 648.816C638.757 649.365 638.544 650.052 638.544 650.876C638.544 652.07 638.976 652.983 639.841 653.615C640.72 654.233 641.832 654.542 643.178 654.542ZM674.063 641.71V660H665.289V628.364H673.651V633.945H674.021C674.722 632.105 675.896 630.65 677.544 629.579C679.191 628.494 681.189 627.952 683.537 627.952C685.734 627.952 687.65 628.432 689.284 629.393C690.918 630.355 692.188 631.728 693.094 633.513C694 635.284 694.453 637.399 694.453 639.857V660H685.679V641.422C685.693 639.486 685.199 637.975 684.196 636.891C683.194 635.792 681.814 635.243 680.056 635.243C678.875 635.243 677.832 635.497 676.926 636.005C676.033 636.513 675.333 637.254 674.825 638.229C674.33 639.191 674.076 640.351 674.063 641.71ZM713.026 660.515C710.623 660.515 708.447 659.897 706.497 658.661C704.561 657.412 703.023 655.579 701.884 653.162C700.758 650.732 700.195 647.752 700.195 644.223C700.195 640.598 700.778 637.584 701.945 635.181C703.112 632.764 704.664 630.959 706.6 629.764C708.55 628.556 710.685 627.952 713.006 627.952C714.777 627.952 716.253 628.254 717.434 628.858C718.629 629.448 719.59 630.19 720.317 631.082C721.059 631.961 721.622 632.826 722.006 633.678H722.274V617.818H731.028V660H722.377V654.933H722.006C721.594 655.812 721.011 656.684 720.256 657.549C719.514 658.4 718.546 659.107 717.352 659.67C716.171 660.233 714.729 660.515 713.026 660.515ZM715.807 653.533C717.221 653.533 718.416 653.148 719.391 652.379C720.379 651.597 721.134 650.505 721.656 649.104C722.192 647.704 722.46 646.063 722.46 644.182C722.46 642.301 722.199 640.667 721.677 639.28C721.155 637.893 720.4 636.822 719.411 636.067C718.423 635.312 717.221 634.934 715.807 634.934C714.365 634.934 713.15 635.325 712.161 636.108C711.173 636.891 710.424 637.975 709.916 639.362C709.408 640.749 709.154 642.356 709.154 644.182C709.154 646.022 709.408 647.649 709.916 649.063C710.438 650.464 711.186 651.562 712.161 652.359C713.15 653.141 714.365 653.533 715.807 653.533ZM752.536 660.618C749.336 660.618 746.57 659.938 744.235 658.579C741.915 657.206 740.123 655.297 738.86 652.853C737.596 650.395 736.965 647.546 736.965 644.305C736.965 641.037 737.596 638.181 738.86 635.737C740.123 633.279 741.915 631.371 744.235 630.011C746.57 628.638 749.336 627.952 752.536 627.952C755.735 627.952 758.495 628.638 760.816 630.011C763.15 631.371 764.949 633.279 766.212 635.737C767.475 638.181 768.107 641.037 768.107 644.305C768.107 647.546 767.475 650.395 766.212 652.853C764.949 655.297 763.15 657.206 760.816 658.579C758.495 659.938 755.735 660.618 752.536 660.618ZM752.577 653.821C754.032 653.821 755.248 653.409 756.222 652.585C757.197 651.748 757.932 650.608 758.426 649.166C758.934 647.724 759.188 646.084 759.188 644.244C759.188 642.404 758.934 640.763 758.426 639.321C757.932 637.879 757.197 636.74 756.222 635.902C755.248 635.064 754.032 634.646 752.577 634.646C751.108 634.646 749.872 635.064 748.869 635.902C747.881 636.74 747.133 637.879 746.624 639.321C746.13 640.763 745.883 642.404 745.883 644.244C745.883 646.084 746.13 647.724 746.624 649.166C747.133 650.608 747.881 651.748 748.869 652.585C749.872 653.409 751.108 653.821 752.577 653.821ZM796.257 660.597C794.239 660.597 792.44 660.247 790.861 659.547C789.282 658.833 788.032 657.782 787.112 656.396C786.206 654.995 785.753 653.251 785.753 651.164C785.753 649.406 786.076 647.93 786.721 646.736C787.366 645.541 788.245 644.58 789.357 643.852C790.469 643.125 791.733 642.575 793.147 642.205C794.575 641.834 796.072 641.573 797.637 641.422C799.477 641.23 800.96 641.051 802.086 640.886C803.212 640.708 804.029 640.447 804.537 640.104C805.045 639.76 805.299 639.252 805.299 638.58V638.456C805.299 637.152 804.887 636.142 804.063 635.428C803.253 634.714 802.1 634.357 800.603 634.357C799.024 634.357 797.768 634.707 796.834 635.408C795.9 636.094 795.282 636.959 794.98 638.003L786.865 637.344C787.277 635.421 788.087 633.76 789.295 632.359C790.504 630.945 792.062 629.86 793.971 629.105C795.893 628.336 798.118 627.952 800.644 627.952C802.402 627.952 804.084 628.158 805.69 628.57C807.311 628.982 808.746 629.62 809.995 630.485C811.258 631.35 812.254 632.462 812.982 633.822C813.709 635.167 814.073 636.781 814.073 638.662V660H805.752V655.613H805.505C804.997 656.602 804.317 657.473 803.466 658.229C802.615 658.97 801.592 659.554 800.397 659.979C799.202 660.391 797.822 660.597 796.257 660.597ZM798.77 654.542C800.061 654.542 801.2 654.288 802.189 653.78C803.178 653.258 803.953 652.558 804.516 651.679C805.079 650.8 805.361 649.805 805.361 648.692V645.335C805.086 645.514 804.709 645.679 804.228 645.83C803.761 645.967 803.232 646.097 802.642 646.221C802.052 646.331 801.461 646.434 800.871 646.53C800.28 646.612 799.745 646.688 799.264 646.756C798.234 646.907 797.335 647.148 796.566 647.477C795.797 647.807 795.2 648.253 794.774 648.816C794.348 649.365 794.136 650.052 794.136 650.876C794.136 652.07 794.568 652.983 795.433 653.615C796.312 654.233 797.424 654.542 798.77 654.542ZM843.325 660.597C841.307 660.597 839.508 660.247 837.929 659.547C836.35 658.833 835.101 657.782 834.181 656.396C833.274 654.995 832.821 653.251 832.821 651.164C832.821 649.406 833.144 647.93 833.789 646.736C834.435 645.541 835.313 644.58 836.426 643.852C837.538 643.125 838.801 642.575 840.215 642.205C841.643 641.834 843.14 641.573 844.705 641.422C846.545 641.23 848.028 641.051 849.154 640.886C850.28 640.708 851.097 640.447 851.605 640.104C852.113 639.76 852.367 639.252 852.367 638.58V638.456C852.367 637.152 851.955 636.142 851.132 635.428C850.321 634.714 849.168 634.357 847.671 634.357C846.092 634.357 844.836 634.707 843.902 635.408C842.968 636.094 842.351 636.959 842.048 638.003L833.933 637.344C834.345 635.421 835.155 633.76 836.364 632.359C837.572 630.945 839.131 629.86 841.039 629.105C842.962 628.336 845.186 627.952 847.713 627.952C849.47 627.952 851.152 628.158 852.759 628.57C854.379 628.982 855.814 629.62 857.063 630.485C858.327 631.35 859.322 632.462 860.05 633.822C860.778 635.167 861.142 636.781 861.142 638.662V660H852.82V655.613H852.573C852.065 656.602 851.386 657.473 850.534 658.229C849.683 658.97 848.66 659.554 847.465 659.979C846.271 660.391 844.891 660.597 843.325 660.597ZM845.838 654.542C847.129 654.542 848.269 654.288 849.257 653.78C850.246 653.258 851.022 652.558 851.585 651.679C852.148 650.8 852.429 649.805 852.429 648.692V645.335C852.155 645.514 851.777 645.679 851.296 645.83C850.829 645.967 850.301 646.097 849.71 646.221C849.12 646.331 848.53 646.434 847.939 646.53C847.349 646.612 846.813 646.688 846.333 646.756C845.303 646.907 844.403 647.148 843.634 647.477C842.865 647.807 842.268 648.253 841.843 648.816C841.417 649.365 841.204 650.052 841.204 650.876C841.204 652.07 841.637 652.983 842.502 653.615C843.38 654.233 844.493 654.542 845.838 654.542ZM867.949 628.364H876.723V661.565C876.723 664.009 876.242 665.987 875.281 667.497C874.32 669.008 872.94 670.113 871.141 670.813C869.356 671.513 867.221 671.864 864.736 671.864C864.434 671.864 864.145 671.857 863.871 671.843C863.582 671.843 863.28 671.836 862.964 671.822V664.964C863.198 664.978 863.404 664.984 863.582 664.984C863.747 664.998 863.925 665.005 864.118 665.005C865.532 665.005 866.521 664.703 867.084 664.099C867.66 663.508 867.949 662.616 867.949 661.421V628.364ZM872.315 624.286C871.024 624.286 869.912 623.853 868.979 622.988C868.045 622.109 867.578 621.059 867.578 619.837C867.578 618.628 868.045 617.592 868.979 616.727C869.912 615.848 871.024 615.408 872.315 615.408C873.633 615.408 874.752 615.848 875.672 616.727C876.606 617.592 877.073 618.628 877.073 619.837C877.073 621.059 876.606 622.109 875.672 622.988C874.752 623.853 873.633 624.286 872.315 624.286ZM904.039 646.53V628.364H912.813V660H904.389V654.254H904.06C903.346 656.107 902.158 657.597 900.496 658.723C898.849 659.849 896.837 660.412 894.462 660.412C892.347 660.412 890.487 659.931 888.88 658.97C887.273 658.009 886.017 656.643 885.111 654.871C884.218 653.1 883.765 650.979 883.751 648.507V628.364H892.526V646.942C892.539 648.809 893.04 650.285 894.029 651.37C895.018 652.455 896.343 652.997 898.004 652.997C899.062 652.997 900.05 652.757 900.97 652.276C901.89 651.782 902.632 651.054 903.195 650.093C903.771 649.132 904.053 647.944 904.039 646.53ZM931.489 660.515C929.086 660.515 926.91 659.897 924.96 658.661C923.024 657.412 921.486 655.579 920.346 653.162C919.22 650.732 918.657 647.752 918.657 644.223C918.657 640.598 919.241 637.584 920.408 635.181C921.575 632.764 923.127 630.959 925.063 629.764C927.013 628.556 929.148 627.952 931.469 627.952C933.24 627.952 934.716 628.254 935.897 628.858C937.091 629.448 938.053 630.19 938.78 631.082C939.522 631.961 940.085 632.826 940.469 633.678H940.737V617.818H949.491V660H940.84V654.933H940.469C940.057 655.812 939.474 656.684 938.719 657.549C937.977 658.4 937.009 659.107 935.814 659.67C934.634 660.233 933.192 660.515 931.489 660.515ZM934.27 653.533C935.684 653.533 936.879 653.148 937.854 652.379C938.842 651.597 939.597 650.505 940.119 649.104C940.655 647.704 940.922 646.063 940.922 644.182C940.922 642.301 940.662 640.667 940.14 639.28C939.618 637.893 938.863 636.822 937.874 636.067C936.885 635.312 935.684 634.934 934.27 634.934C932.828 634.934 931.613 635.325 930.624 636.108C929.635 636.891 928.887 637.975 928.379 639.362C927.871 640.749 927.617 642.356 927.617 644.182C927.617 646.022 927.871 647.649 928.379 649.063C928.901 650.464 929.649 651.562 930.624 652.359C931.613 653.141 932.828 653.533 934.27 653.533ZM965.726 660.597C963.707 660.597 961.909 660.247 960.33 659.547C958.75 658.833 957.501 657.782 956.581 656.396C955.675 654.995 955.222 653.251 955.222 651.164C955.222 649.406 955.544 647.93 956.19 646.736C956.835 645.541 957.714 644.58 958.826 643.852C959.938 643.125 961.201 642.575 962.616 642.205C964.044 641.834 965.54 641.573 967.106 641.422C968.946 641.23 970.429 641.051 971.555 640.886C972.681 640.708 973.498 640.447 974.006 640.104C974.514 639.76 974.768 639.252 974.768 638.58V638.456C974.768 637.152 974.356 636.142 973.532 635.428C972.722 634.714 971.568 634.357 970.072 634.357C968.493 634.357 967.236 634.707 966.303 635.408C965.369 636.094 964.751 636.959 964.449 638.003L956.334 637.344C956.746 635.421 957.556 633.76 958.764 632.359C959.973 630.945 961.531 629.86 963.44 629.105C965.362 628.336 967.586 627.952 970.113 627.952C971.871 627.952 973.553 628.158 975.159 628.57C976.779 628.982 978.214 629.62 979.464 630.485C980.727 631.35 981.723 632.462 982.45 633.822C983.178 635.167 983.542 636.781 983.542 638.662V660H975.221V655.613H974.974C974.466 656.602 973.786 657.473 972.935 658.229C972.083 658.97 971.06 659.554 969.866 659.979C968.671 660.391 967.291 660.597 965.726 660.597ZM968.239 654.542C969.529 654.542 970.669 654.288 971.658 653.78C972.646 653.258 973.422 652.558 973.985 651.679C974.548 650.8 974.83 649.805 974.83 648.692V645.335C974.555 645.514 974.177 645.679 973.697 645.83C973.23 645.967 972.701 646.097 972.111 646.221C971.52 646.331 970.93 646.434 970.339 646.53C969.749 646.612 969.214 646.688 968.733 646.756C967.703 646.907 966.804 647.148 966.035 647.477C965.266 647.807 964.669 648.253 964.243 648.816C963.817 649.365 963.604 650.052 963.604 650.876C963.604 652.07 964.037 652.983 964.902 653.615C965.781 654.233 966.893 654.542 968.239 654.542ZM990.349 660V628.364H998.855V633.884H999.185C999.762 631.92 1000.73 630.437 1002.09 629.435C1003.45 628.419 1005.01 627.911 1006.79 627.911C1007.22 627.911 1007.7 627.938 1008.21 627.993C1008.71 628.048 1009.16 628.123 1009.55 628.219V636.005C1009.13 635.881 1008.56 635.772 1007.84 635.675C1007.11 635.579 1006.44 635.531 1005.84 635.531C1004.55 635.531 1003.39 635.813 1002.38 636.376C1001.38 636.925 1000.58 637.694 999.988 638.683C999.412 639.671 999.123 640.811 999.123 642.102V660H990.349Z" fill="white"/>
<defs>
<clipPath id="clip0_2_14">
<rect width="1447" height="554" fill="white" transform="translate(-7.5 311.755)"/>
</clipPath>
<clipPath id="clip1_2_14">
<rect width="1448" height="320.848" fill="white" transform="translate(-8.01123 70.4129)"/>
</clipPath>
</defs>
</svg>
