<svg width="41" height="38" viewBox="0 0 41 38" fill="none" xmlns="http://www.w3.org/2000/svg">
<path d="M20.4037 0.7314C9.34058 0.7314 0.361816 9.06919 0.361816 19.3425C0.361816 29.6159 9.34058 37.9537 20.4037 37.9537C31.4668 37.9537 40.4456 29.6159 40.4456 19.3425C40.4456 9.06919 31.4668 0.7314 20.4037 0.7314ZM20.4037 6.31474C23.7307 6.31474 26.4163 8.80863 26.4163 11.8981C26.4163 14.9875 23.7307 17.4814 20.4037 17.4814C17.0768 17.4814 14.3911 14.9875 14.3911 11.8981C14.3911 8.80863 17.0768 6.31474 20.4037 6.31474ZM20.4037 32.7425C15.3932 32.7425 10.964 30.3603 8.37857 26.7498C8.4387 23.0461 16.3953 21.0175 20.4037 21.0175C24.392 21.0175 32.3687 23.0461 32.4288 26.7498C29.8434 30.3603 25.4142 32.7425 20.4037 32.7425Z" fill="black" fill-opacity="0.6"/>
</svg>
