<svg width="33" height="34" viewBox="0 0 33 34" fill="none" xmlns="http://www.w3.org/2000/svg">
<path d="M16.5094 0.658203C7.76043 0.658203 0.65979 7.93934 0.65979 16.9107C0.65979 25.8822 7.76043 33.1633 16.5094 33.1633C25.2584 33.1633 32.3591 25.8822 32.3591 16.9107C32.3591 7.93934 25.2584 0.658203 16.5094 0.658203ZM16.5094 5.53397C19.1405 5.53397 21.2643 7.71181 21.2643 10.4097C21.2643 13.1077 19.1405 15.2855 16.5094 15.2855C13.8784 15.2855 11.7545 13.1077 11.7545 10.4097C11.7545 7.71181 13.8784 5.53397 16.5094 5.53397ZM16.5094 28.6126C12.547 28.6126 9.04425 26.5323 6.99965 23.3793C7.0472 20.145 13.3395 18.3735 16.5094 18.3735C19.6635 18.3735 25.9717 20.145 26.0192 23.3793C23.9746 26.5323 20.4718 28.6126 16.5094 28.6126Z" fill="white" fill-opacity="0.6"/>
</svg>
