<svg width="390" height="53" viewBox="0 0 390 53" fill="none" xmlns="http://www.w3.org/2000/svg">
<path d="M-2.16968 0.708893L14.1707 6.08069C30.5111 11.372 63.1919 22.2363 95.8727 28.6141C128.554 35.1125 161.234 37.1244 193.915 32.8994C226.596 28.6744 259.277 17.8101 291.958 11.4324C324.638 4.9339 357.319 2.92199 373.66 1.77521L390 0.708893V52.2138H373.66C357.319 52.2138 324.638 52.2138 291.958 52.2138C259.277 52.2138 226.596 52.2138 193.915 52.2138C161.234 52.2138 128.554 52.2138 95.8727 52.2138C63.1919 52.2138 30.5111 52.2138 14.1707 52.2138H-2.16968V0.708893Z" fill="#6F2A86" fill-opacity="0.8"/>
</svg>
